# xmcd CD database file
#
# Track frame offsets:
#	150
#	19376
#	36174
#	53877
#
# Disc length: 979 seconds
#
# Revision: 2
# Processed by: cddbd v1.5.2PL0 Copyright (c) Steve Scherf et al.
# Submitted via: CDex 1.70beta3
#
DISCID=2f03d104
DTITLE=Official髭男dism - Stand By You -EP
DYEAR=2018
DGENRE=J-Rock
TTITLE0=Stand By You
TTITLE1=FIRE GROUND
TTITLE2=バッドフォーミー
TTITLE3=Stand By You -Acoustic Ver.-
EXTD=YEAR: 2018
EXTT0=
EXTT1=
EXTT2=
EXTT3=
PLAYORDER=
